<svg width="1052" height="1028" viewBox="0 0 1052 1028" fill="none" xmlns="http://www.w3.org/2000/svg">
<path d="M683.359 36.1858C682.916 36.1956 682.489 36.2172 682.425 36.2323C682.503 36.2736 684.213 36.2546 684.299 36.1976C684.248 36.1825 683.923 36.1753 683.516 36.1825L683.359 36.1858Z" fill="#2D2B29"/>
<path d="M659.633 41.7206C659.739 41.6446 657.951 42.419 657.853 42.5153C658.403 42.3004 659.06 41.9964 659.601 41.7389L659.633 41.7206Z" fill="#2D2B29"/>
<path d="M789.662 219.877C789.64 220.029 789.508 221.142 789.47 221.497C789.446 221.721 789.446 221.749 789.472 221.557C789.495 221.413 789.662 219.985 789.668 219.851L789.662 219.877Z" fill="#2D2B29"/>
<path d="M568.643 403.331C605.689 446.948 675.012 445.583 719.5 414.222C753.116 391.667 776.872 356.852 792.04 319.762C818.683 253.431 827.674 168.803 810.327 99.1667C802.011 66.2325 786.095 33.728 756.166 15.4644C706.94 -14.9441 644.848 2.14671 611.429 47.7336C598.71 64.4923 588.494 83.0665 579.287 101.948C558.17 144.981 544.857 191.739 538.857 239.287C532.976 293.135 531.511 359.723 568.559 403.233L568.643 403.331ZM735.19 367.798C735.41 367.569 735.471 367.499 735.607 367.367C735.555 367.427 735.24 367.751 735.194 367.795L735.19 367.798ZM763.345 326.062C763.327 326.113 762.939 326.924 762.877 327.039C762.867 327.033 763.258 326.241 763.346 326.057L763.345 326.062ZM777.668 287.743C777.814 287.206 778.1 286.165 778.261 285.617C778.293 285.523 777.656 287.821 777.661 287.771L777.668 287.743ZM564.873 249.45C568.405 199.083 581.654 149.08 604.515 103.997C615.438 83.6529 626.418 61.7223 646.34 48.8167C655.114 42.985 664.791 39.2741 675.075 37.3708C709.262 30.6651 745.924 47.7802 764.417 77.0546C769.617 84.8335 773.104 92.0456 776.313 101.006C781.643 115.446 785.468 130.632 787.892 145.759C795.632 199.047 788.455 264.453 768.371 314.491C763.433 326.675 756.901 339.587 749.523 350.302C742.02 360.653 732.169 371.899 721.659 379.85C685.667 408.043 627.735 410.041 594.994 375.692C563.896 342.29 562.422 292.698 564.864 249.579L564.873 249.45Z" fill="#2D2B29"/>
<path d="M1013.35 438.89C1013.34 439.105 1013.69 436.718 1013.64 436.875C1013.45 437.401 1013.38 438.301 1013.35 438.843L1013.35 438.89Z" fill="#2D2B29"/>
<path d="M1028.56 273.902C1001.21 238.197 951.357 227.174 911.284 247.382C877.608 263.387 844.618 304.173 823.745 334.85C781.677 397.236 727.048 526.689 783.486 592.472C820.866 634.158 884.855 634.003 929.697 604.298C981.635 570.69 1013.29 514.109 1033.35 457.021C1051.88 403.076 1065.76 322.531 1028.64 274.005L1028.56 273.902ZM795.738 544.719C795.682 544.595 795.438 544.04 795.437 544.03C795.429 544.009 795.474 544.109 795.551 544.286C795.674 544.565 795.795 544.848 795.744 544.729L795.738 544.719ZM1023.24 382.465C1020.59 432.591 997.915 494.694 967.732 534.824C947.022 562.393 917.073 585.729 881.845 589.047C854.272 591.339 824.418 582.335 806.219 560.679C769.08 516.536 795.654 440.133 817.069 393.642C835.12 356.575 859.754 321.361 890.567 293.682C902.658 282.653 918.376 275.392 934.695 273.554C968.936 270.294 1002.46 290.93 1015.4 322.763C1023.09 341.421 1023.95 362.288 1023.24 382.336L1023.24 382.465Z" fill="#2D2B29"/>
<path d="M908.893 582.561C908.975 582.555 909.222 582.402 909.381 582.323C910.05 581.967 910.781 581.521 910.626 581.529C910.025 581.742 909.432 582.193 908.912 582.542L908.893 582.561Z" fill="#2D2B29"/>
<path d="M900.565 285.755C900.181 285.976 898.912 286.829 898.819 286.927C898.848 286.984 900.183 286.077 900.483 285.868C900.772 285.664 900.837 285.598 900.637 285.713L900.565 285.755Z" fill="#2D2B29"/>
<path d="M843.679 347.716C843.555 347.895 843.525 347.946 843.591 347.861C844.062 347.235 844.767 346.268 845.229 345.586C845.293 345.471 844.212 346.949 843.736 347.633L843.679 347.716Z" fill="#2D2B29"/>
<path d="M239.433 263.66C247.921 311.11 265.224 358.91 298.716 394.455C340.247 440.786 414.646 453.309 464.204 412.412C525.421 361.38 521.416 263.735 507.752 192.259C498.271 144.842 480.595 98.7227 455.067 57.5451C433.323 21.16 397.97 -2.66928 354.496 0.239693C347.925 0.693072 341.394 1.76953 335.017 3.4258C230.734 32.8948 222.871 174.519 239.411 263.531L239.433 263.66ZM341.133 36.2794C341.097 36.2821 340.839 36.2932 340.869 36.2912C340.848 36.2919 341.103 36.2808 341.135 36.2788L341.133 36.2794ZM341.995 36.2048C342.074 36.1943 342.628 36.1301 342.572 36.1373C342.661 36.1275 342.696 36.1248 342.64 36.132C342.632 36.1353 341.959 36.2113 342.027 36.2028L341.995 36.2048ZM293.352 58.3719C293.685 58.022 293.793 57.9126 293.961 57.7469C294.045 57.6656 294.076 57.6446 294.041 57.6925C293.856 57.9565 292.484 59.409 292.223 59.6514C292.013 59.8565 292.039 59.8034 292.255 59.5591C292.531 59.2459 292.924 58.8253 293.236 58.4957L293.352 58.3719ZM260.858 167.395C261.655 135.801 266.566 103.342 281.232 75.0277C293.832 51.5089 319.705 36.9752 346.078 36.0763C377.053 34.4908 406.849 51.4696 423.895 76.9696C436.462 95.0033 446.721 114.566 455.471 134.695C472.694 174.836 483.672 218.167 486.651 261.864C488.609 291.836 488.75 322.752 478.951 351.449C469.203 381.497 444.928 398.012 414.068 401.08C360.007 404.958 318.174 369.92 293.986 324.235C269.497 276.968 260.411 220.351 260.854 167.526L260.858 167.395Z" fill="#2D2B29"/>
<path d="M468.094 373.014C468.401 372.611 469.076 371.735 469.359 371.235C469.341 371.254 469.304 371.29 469.286 371.309C469.073 371.552 468.218 372.702 467.944 373.119C467.756 373.4 467.791 373.395 468.028 373.097L468.094 373.014Z" fill="#2D2B29"/>
<path d="M475.368 360.63C475.54 360.251 475.714 359.859 475.86 359.517C475.98 359.237 475.986 359.209 475.838 359.53C475.64 359.962 475.276 360.766 475.053 361.285C474.986 361.453 475.039 361.337 475.091 361.232C475.14 361.129 475.213 360.97 475.3 360.779L475.368 360.63Z" fill="#2D2B29"/>
<path d="M252.965 562.456C253.147 562.193 253.502 561.747 253.591 561.551C253.258 561.946 252.26 563.301 252.095 563.584C252.185 563.488 252.237 563.416 252.371 563.245C252.502 563.076 252.672 562.852 252.855 562.604L252.965 562.456Z" fill="#2D2B29"/>
<path d="M239.539 575.473C239.853 575.327 241.664 573.881 241.288 574.124C240.711 574.525 240.064 575.021 239.552 575.457L239.539 575.473Z" fill="#2D2B29"/>
<path d="M32.4009 319.648C32.4277 319.576 32.7357 318.595 32.834 318.273C32.9093 318.028 32.9283 317.957 32.8726 318.125C32.8385 318.219 32.4291 319.534 32.4042 319.631L32.4009 319.648Z" fill="#2D2B29"/>
<path d="M260.713 590.646C304.604 544.347 295.499 473.972 276.146 418.548C256.084 360.702 222.927 306.945 177.809 265.314C171.976 260.091 165.83 255.295 159.155 251.263C105.098 218.424 39.351 246.608 13.794 301.693C7.18462 315.104 3.54579 329.728 1.71851 344.515C-6.0335 407.005 13.2987 470.25 42.4467 525.055C67.606 570.762 106.373 615.414 160.478 623.938C196.824 629.938 235.359 617.706 260.623 590.741L260.713 590.646ZM28.9757 339.951C28.9737 339.912 28.9776 339.867 28.975 339.829C28.977 339.857 28.977 339.899 28.9757 339.951ZM28.9147 340.498C28.977 339.903 28.996 339.899 28.9049 340.845C28.844 341.484 28.7759 342.071 28.7745 342.005C28.7988 341.59 28.8512 341.135 28.899 340.653L28.9147 340.498ZM207.334 588.031C136.609 599.589 83.4638 535.168 57.5268 477.001C42.3864 442.743 30.7473 406.262 28.6094 368.674C27.9084 347.549 27.7878 324.385 38.5248 305.411C53.5689 278.735 88.0055 267.959 116.918 275.713C144.31 282.802 164.382 304.469 182.326 325.111C219.885 369.489 246.784 422.735 259.498 479.473C262.36 492.423 264.134 505.596 264.096 518.859C263.985 533.225 261.475 550.912 252.755 562.564C242.156 576.937 224.77 585.02 207.461 588.009L207.334 588.031Z" fill="#2D2B29"/>
<path d="M741.378 960.599C742.915 959.645 740.014 961.21 739.837 961.41C739.836 961.452 740.588 961.071 741.245 960.678L741.378 960.599Z" fill="#2D2B29"/>
<path d="M814.27 765.755C814.244 765.401 814.237 764.957 814.128 764.699C813.988 765.128 813.984 765.814 814.106 766.226C814.183 766.401 814.277 766.247 814.272 765.891L814.27 765.755Z" fill="#2D2B29"/>
<path d="M281.341 672.397C280.263 673.954 282.377 670.957 282.325 671.008C282.049 671.383 281.729 671.844 281.442 672.253L281.341 672.397Z" fill="#2D2B29"/>
<path d="M843.328 755.797C835.614 675.821 790.802 602.122 725.876 555.45C678.946 521.708 622.413 499.607 564.317 498.104C529.935 497.501 495.067 499.802 461.789 508.854C357.355 539.403 270.077 622.084 228.231 721.913C214.856 754.889 206.831 790.461 207.033 826.148C207.794 883.427 230.549 941.512 272.525 981.106C318.527 1025.8 387.173 1037.04 447.509 1019.1C467.409 1013.56 485.874 1004.5 503.933 994.819C507.699 993.015 511.56 991.452 515.564 990.414C533.947 985.563 549.031 992.056 565.171 1000.22C616.614 1025.19 678.898 1029.01 729.794 1000.52C812.981 952.459 852.848 849.019 843.341 755.928L843.328 755.797ZM426.537 553.999C426.783 553.872 427.556 553.569 427.841 553.456C428.259 553.293 428.222 553.329 427.745 553.532C427.273 553.733 426.566 554.006 426.538 554.003L426.537 553.999ZM236.148 789.785C236.148 789.796 236.148 789.816 236.147 789.838C236.146 789.82 236.148 789.802 236.148 789.785ZM237.21 835.214C237.215 835.256 237.219 835.289 237.221 835.307C237.218 835.276 237.213 835.245 237.21 835.214ZM254.241 892.54C254.127 892.32 253.829 891.682 253.643 891.283C253.578 891.14 253.58 891.135 253.651 891.279C253.789 891.556 254.206 892.448 254.236 892.526L254.241 892.54ZM816.146 810.186C813.289 871.768 784.778 936.621 729.486 967.95C684.23 993.682 626.817 987.293 581.626 964.621C560.577 953.477 540.026 949.072 516.879 956.642C506.413 959.961 496.915 965.731 487.247 970.768C438.481 995.67 376.645 999.644 327.772 972.938C270.82 942.234 237.537 877.299 235.475 813.822C234.655 786.849 239.645 759.78 248.931 734.406C278.347 654.519 350.266 584.541 428.789 553.113C449.503 544.852 471.349 539.102 493.543 536.615C522.331 533.483 551.683 532.526 580.52 536.556C609.062 540.415 636.53 550.103 662.275 562.84C755.278 608.054 822.006 704.807 816.15 810.057L816.146 810.186Z" fill="#2D2B29"/>
<path d="M243.738 750.174C243.646 750.415 243.197 752.2 243.124 752.588C243.315 751.958 243.587 750.83 243.733 750.204L243.738 750.174Z" fill="#2D2B29"/>
<path d="M762.841 942.125C762.286 942.604 761.598 943.28 761.06 943.819C760.942 943.943 761.097 943.812 761.422 943.51C761.815 943.141 762.438 942.555 762.832 942.138L762.841 942.125Z" fill="#2D2B29"/>
<path d="M779.632 921.697C779.844 921.403 780.535 920.43 780.652 920.245C780.67 920.217 780.441 920.536 780.414 920.574C780.285 920.752 779.016 922.542 779.563 921.793L779.632 921.697Z" fill="#2D2B29"/>
</svg>
