<svg width="114" height="75" viewBox="0 0 114 75" fill="none" xmlns="http://www.w3.org/2000/svg">
<mask id="mask0_38_486" style="mask-type:luminance" maskUnits="userSpaceOnUse" x="11" y="0" width="93" height="74">
<path d="M11.8765 0H103.954V73.2859H11.8765V0Z" fill="white"/>
</mask>
<g mask="url(#mask0_38_486)">
<mask id="mask1_38_486" style="mask-type:luminance" maskUnits="userSpaceOnUse" x="-10" y="-23" width="129" height="133">
<path d="M-9.0459 14.3306L78.9696 -22.3857L118.578 72.5664L30.565 109.283L-9.0459 14.3306Z" fill="white"/>
</mask>
<g mask="url(#mask1_38_486)">
<mask id="mask2_38_486" style="mask-type:luminance" maskUnits="userSpaceOnUse" x="-10" y="-23" width="129" height="133">
<path d="M-9.0459 14.3306L78.9696 -22.3857L118.578 72.5664L30.565 109.283L-9.0459 14.3306Z" fill="white"/>
</mask>
<g mask="url(#mask2_38_486)">
<path d="M42.466 0.14651C60.2663 -1.64942 65.982 16.4421 74.6974 19.8162C83.4153 23.1878 101.076 30.6113 103.501 52.8159C106.195 77.4769 75.9037 64.5922 57.7633 70.3275C23.6674 81.1129 7.24955 53.3909 13.988 35.9404C20.724 18.49 19.5006 2.47095 42.466 0.14651Z" fill="#F2786D"/>
</g>
</g>
</g>
<path d="M40.2959 8.78369C40.2959 8.78369 40.6855 12.3143 41.1846 14.3794C43.0931 13.8927 46.0783 15.1801 47.1573 15.9165C48.2356 16.6507 47.6809 18.4141 49.9483 19.3267C51.4457 19.9286 55.0088 21.179 56.7999 21.6978C57.255 21.8278 58.2311 23.1419 57.4434 23.7241C57.1327 23.9541 57.1099 26.1555 55.3409 26.9312C51.201 28.7416 47.4036 27.4939 46.1582 28.48C45.6299 28.8989 48.1895 37.3748 47.2647 41.5317C46.0193 47.1447 43.8367 56.1757 44.1719 58.6958C45.7157 64.3207 45.1583 68.732 46.2715 71.3989C46.5602 72.0938 49.8701 72.2309 50.0909 72.7495C50.7123 74.1956 50.2251 74.3872 49.5889 74.3872H43.3936C41.5714 74.3867 39.001 57.4954 38.9922 57.438C38.9922 57.438 29.8898 65.742 28.7471 63.6157C26.589 58.8031 22.691 56.5542 22.2188 56.5347C22.302 56.679 27.7657 59.8014 28.3311 64.9419C28.9844 70.8851 21.6026 70.2007 21.6026 70.2007C21.6026 70.2007 24.9938 70.3932 27.4112 70.5327C29.826 70.6697 32.3878 74.0369 29.5674 74.1938C26.7463 74.348 12.4761 74.5364 9.82133 74.1938C7.16661 73.8513 5.81166 72.9453 7.55376 70.7358C6.47473 70.3199 2.35613 70.073 0.741256 66.1899C-1.32372 61.2206 1.5811 55.8032 1.5811 55.8032C1.5811 55.8032 1.05249 61.4257 3.01958 64.5405C4.34573 66.6423 5.95087 66.6159 7.4434 66.5327C5.01132 50.4942 29.6005 35.4388 31.1153 31.7515C33.9363 24.8862 33.6041 16.9199 36.2071 16.3687C35.9484 13.2191 40.2773 8.80268 40.2959 8.78369Z" fill="white"/>
<mask id="mask3_38_486" style="mask-type:luminance" maskUnits="userSpaceOnUse" x="65" y="28" width="49" height="43">
<path d="M65.1182 28.9819H113.975V70.7803H65.1182V28.9819Z" fill="white"/>
</mask>
<g mask="url(#mask3_38_486)">
<path d="M75.6398 47.8365C75.6398 47.8365 76.3493 54.5088 77.0614 55.3089C77.7734 56.109 78.4854 66.4295 77.5067 67.3177C76.528 68.2084 75.3706 68.5631 75.2826 69.4538C75.1945 70.3419 78.3973 70.1658 78.664 70.0752C78.9307 69.9872 81.6882 59.9358 82.3097 59.4024C82.9336 58.8666 82.1335 63.0481 82.8431 64.2054C83.5551 65.3603 85.6911 66.6057 85.6911 66.6057V67.3177C85.6911 67.3177 83.2003 66.8724 82.9336 67.4963C82.6669 68.1203 82.3097 69.2752 83.1122 69.3657C83.9123 69.4538 86.2245 69.4538 86.2245 69.4538C86.2245 69.4538 86.1365 70.1413 90.4061 70.1535C94.6757 70.1658 98.8573 69.5419 98.8573 69.5419L106.951 69.1871C106.951 69.1871 106.33 69.696 106.951 70.1535C107.575 70.6111 113.445 70.3419 113.802 69.2752C114.157 68.2084 112.912 66.1628 108.909 66.2509C104.906 66.339 99.6574 67.9417 99.212 65.4508C98.7667 62.96 100.369 57.7998 96.2759 51.5727C92.1849 45.3457 88.8034 47.7484 87.1152 45.4362C85.4244 43.1215 84.4457 40.364 84.9791 37.8732C85.5125 35.3824 86.3126 31.47 85.1577 30.758C84.0004 30.046 82.2216 32.9821 82.2216 32.9821C82.2216 32.9821 78.5735 32.4462 78.3973 32.7129C78.2187 32.9821 77.0614 30.6454 77.0614 30.6454C77.0614 30.6454 76.7066 32.8916 76.8852 33.2488C77.0614 33.6036 75.7279 34.2275 75.6398 34.5823C75.5492 34.9371 74.5681 36.0944 75.2801 37.1612C75.9946 38.2304 76.4399 39.1186 76.2613 39.8306C76.0826 40.5426 76.0826 40.5426 76.0826 40.5426C76.0826 40.5426 71.2796 36.5397 69.5889 34.9371C67.9006 33.3369 68.434 33.0702 67.8101 31.47C67.1886 29.8673 66.2099 28.9792 65.586 29.5126C64.9645 30.046 65.4074 31.1127 65.586 31.2914C65.7646 31.47 65.7646 31.8248 65.6765 32.2701C65.586 32.7129 65.586 33.425 66.298 33.6036C67.01 33.7822 66.9219 36.1825 67.5434 36.8945C68.1673 37.6065 72.525 46.4125 75.6398 47.8365Z" fill="white"/>
</g>
<mask id="mask4_38_486" style="mask-type:luminance" maskUnits="userSpaceOnUse" x="50" y="38" width="29" height="37">
<path d="M50.2275 38.8354H78.8989V74.3504H50.2275V38.8354Z" fill="white"/>
</mask>
<g mask="url(#mask4_38_486)">
<path d="M75.7594 68.2434C75.7594 68.2434 76.5938 62.2096 71.8103 56.467C67.0269 50.7244 62.8576 53.5603 62.8576 53.5603C62.8576 53.5603 61.1889 51.2236 61.688 49.9439C62.1896 48.6667 64.2473 46.7753 64.5263 44.5488C64.8027 42.3246 66.0824 39.3763 64.859 39.3225C63.6356 39.2662 61.3552 46.33 61.3552 46.33C61.3552 46.33 65.6371 34.4264 60.5209 40.9912C58.5561 43.5089 57.9053 47.3308 57.9053 47.3308C57.9053 47.3308 56.0702 47.7761 55.8475 48.2777C55.6249 48.7768 53.2344 49.501 51.8446 51.5588C50.4524 53.6165 50.2322 54.2845 50.675 55.1164C51.1204 55.9508 52.8453 57.8984 54.125 57.4531L54.7367 58.2874C54.7367 58.2874 53.2907 63.6263 58.3506 67.7442C58.3506 67.7442 59.0748 69.9684 58.7396 70.8565C58.4069 71.7472 57.2398 72.3589 57.2398 72.9167C57.2398 73.4721 58.517 74.0276 59.7966 73.7511C61.0763 73.4721 60.4646 73.8245 60.4646 73.8245C60.4646 73.8245 64.4137 73.8612 64.9153 73.5822C65.4144 73.3058 65.4144 72.4714 65.4144 72.4714C65.4144 72.4714 66.2488 73.5284 66.5277 73.4159C66.8042 73.3058 71.1986 74.3456 71.6439 73.8245C72.0893 73.3058 73.1463 73.5822 73.1463 73.5822C73.1463 73.5822 74.536 71.8034 74.9813 70.9128C75.4267 70.0222 75.6616 72.1925 77.4844 71.0792C79.3073 69.9684 79.4859 65.9067 75.7594 68.2434Z" fill="white"/>
</g>
<mask id="mask5_38_486" style="mask-type:luminance" maskUnits="userSpaceOnUse" x="73" y="6" width="14" height="12">
<path d="M73.8877 6.26367H86.4152V17.5384H73.8877V6.26367Z" fill="white"/>
</mask>
<g mask="url(#mask5_38_486)">
<mask id="mask6_38_486" style="mask-type:luminance" maskUnits="userSpaceOnUse" x="72" y="5" width="15" height="14">
<path d="M75.2702 5.34131L86.77 7.72202L84.4872 18.7619L72.9849 16.3812L75.2702 5.34131Z" fill="white"/>
</mask>
<g mask="url(#mask6_38_486)">
<mask id="mask7_38_486" style="mask-type:luminance" maskUnits="userSpaceOnUse" x="72" y="5" width="15" height="14">
<path d="M75.2702 5.34131L86.77 7.72202L84.4872 18.7619L72.9849 16.3812L75.2702 5.34131Z" fill="white"/>
</mask>
<g mask="url(#mask7_38_486)">
<path d="M80.3914 9.53273C81.0128 6.53053 75.2776 5.34384 74.431 9.4373C73.697 12.9827 77.2375 14.6343 78.7398 17.5141C81.2624 15.4662 85.1675 15.3585 85.9015 11.8107C86.7481 7.71722 81.0128 6.53053 80.3914 9.53273Z" fill="#FF5757"/>
</g>
</g>
</g>
</svg>
