<svg width="312" height="90" viewBox="0 0 312 90" fill="none" xmlns="http://www.w3.org/2000/svg">
<path d="M139.63 59.5121C139.63 58.9656 139.829 58.419 140.226 57.8796C140.624 57.333 141.085 57.0562 141.617 57.0562C141.901 57.0562 142.221 57.1698 142.583 57.3969C142.941 57.6241 143.271 57.876 143.576 58.1493C143.878 58.4155 144.3 58.6604 144.84 58.8875C145.386 59.1075 145.961 59.214 146.558 59.214C147.313 59.214 147.97 59.0578 148.531 58.7455C149.099 58.4261 149.383 57.9435 149.383 57.2975C149.383 56.6552 149.063 56.0909 148.431 55.6082C147.807 55.1185 147.04 54.6713 146.132 54.2738C145.23 53.8763 144.322 53.4327 143.406 52.9394C142.497 52.4496 141.724 51.7469 141.092 50.8384C140.467 49.9227 140.155 48.8297 140.155 47.5591C140.155 45.5433 140.883 44.0385 142.341 43.0448C143.796 42.044 145.553 41.54 147.608 41.54C148.119 41.54 148.648 41.5684 149.198 41.6252C149.755 41.682 150.376 41.7956 151.058 41.9659C151.746 42.1292 152.31 42.3918 152.747 42.7609C153.191 43.13 153.414 43.5772 153.414 44.0953C153.414 44.6064 153.251 45.1387 152.931 45.6853C152.609 46.2247 152.165 46.4944 151.597 46.4944C151.37 46.4944 150.877 46.3099 150.121 45.9408C149.361 45.5717 148.524 45.3871 147.608 45.3871C146.643 45.3871 145.912 45.5575 145.422 45.8982C144.939 46.2318 144.698 46.6435 144.698 47.1332C144.698 47.5804 144.925 47.985 145.379 48.3541C145.834 48.7232 146.401 49.0426 147.083 49.3052C147.764 49.5608 148.506 49.8979 149.312 50.3131C150.114 50.7319 150.859 51.1897 151.54 51.6901C152.222 52.1835 152.79 52.8791 153.244 53.777C153.705 54.6677 153.939 55.6863 153.939 56.8291C153.939 58.8662 153.265 60.4561 151.924 61.5989C150.579 62.7346 148.822 63.3024 146.657 63.3024C144.762 63.3024 143.115 62.9156 141.717 62.1384C140.325 61.354 139.63 60.4774 139.63 59.5121Z" fill="#4FA3D1"/>
<path d="M156.752 58.0783V44.4786C156.752 44.0917 156.983 43.7652 157.448 43.499C157.92 43.2364 158.434 43.1016 158.995 43.1016C159.598 43.1016 160.131 43.2364 160.585 43.499C161.039 43.7652 161.266 44.0917 161.266 44.4786V49.1348H164.56C164.908 49.1348 165.177 49.2981 165.369 49.6175C165.568 49.9405 165.667 50.3131 165.667 50.739C165.667 51.1862 165.568 51.5624 165.369 51.8747C165.177 52.187 164.908 52.3431 164.56 52.3431H161.266V58.0783C161.266 58.5042 161.351 58.8023 161.522 58.9726C161.699 59.1359 162.012 59.214 162.459 59.214H163.722C164.336 59.214 164.808 59.4056 165.142 59.7818C165.472 60.1616 165.639 60.6052 165.639 61.1162C165.639 61.6379 165.472 62.0816 165.142 62.4506C164.808 62.8197 164.336 63.0043 163.722 63.0043H162.459C158.654 63.0043 156.752 61.3647 156.752 58.0783Z" fill="#4FA3D1"/>
<path d="M168.313 61.6134V50.5122C168.313 50.1076 168.519 49.774 168.938 49.5185C169.363 49.263 169.892 49.1352 170.528 49.1352C171.095 49.1352 171.571 49.263 171.961 49.5185C172.348 49.774 172.543 50.1076 172.543 50.5122V51.5911C172.856 50.8919 173.331 50.2815 173.977 49.7598C174.63 49.231 175.304 48.9648 176.007 48.9648H176.859C177.285 48.9648 177.654 49.16 177.966 49.5469C178.286 49.9373 178.449 50.3915 178.449 50.9097C178.449 51.4598 178.286 51.9282 177.966 52.3151C177.654 52.7055 177.285 52.8971 176.859 52.8971H176.007C175.173 52.8971 174.435 53.3017 173.793 54.1038C173.147 54.9094 172.827 55.9564 172.827 57.2411V61.6134C172.827 61.9541 172.6 62.2736 172.146 62.5646C171.692 62.8591 171.152 63.0046 170.528 63.0046C169.91 63.0046 169.385 62.8627 168.952 62.5788C168.526 62.2948 168.313 61.9754 168.313 61.6134Z" fill="#4FA3D1"/>
<path d="M179.91 59.4273C179.91 57.8089 180.496 56.6732 181.67 56.0202C182.842 55.3601 184.527 55.0265 186.724 55.0265H187.775V54.7284C187.775 54.1535 187.597 53.6495 187.249 53.2236C186.898 52.7907 186.344 52.5706 185.589 52.5706C184.659 52.5706 183.892 52.7339 183.289 53.0533C182.682 53.3762 182.313 53.5359 182.182 53.5359C181.717 53.5359 181.347 53.3088 181.074 52.8545C180.797 52.4003 180.663 51.8821 180.663 51.293C180.663 50.6506 181.202 50.1005 182.281 49.6462C183.36 49.192 184.481 48.9648 185.645 48.9648C187.878 48.9648 189.542 49.5114 190.642 50.5974C191.739 51.6869 192.289 53.0462 192.289 54.6716V61.6134C192.289 62.0038 192.08 62.3339 191.664 62.6072C191.246 62.8733 190.717 63.0046 190.074 63.0046C189.514 63.0046 189.038 62.8733 188.641 62.6072C188.25 62.3339 188.059 62.0038 188.059 61.6134V60.9604C186.724 62.522 185.251 63.3028 183.644 63.3028C182.572 63.3028 181.685 62.9727 180.975 62.309C180.265 61.6489 179.91 60.6872 179.91 59.4273ZM184.453 58.7742C184.453 59.5976 184.829 60.0093 185.589 60.0093C186.071 60.0093 186.554 59.7396 187.037 59.2001C187.526 58.6536 187.775 58.029 187.775 57.3263V57.2127H187.661C187.015 57.2127 186.486 57.2411 186.071 57.2979C185.652 57.3547 185.28 57.5073 184.95 57.7521C184.616 57.9899 184.453 58.3306 184.453 58.7742Z" fill="#4FA3D1"/>
<path d="M194.413 67.4055C194.413 66.1633 194.782 65.5458 195.52 65.5458C198.274 65.5458 199.651 64.3001 199.651 61.8123L194.555 51.6763C194.459 51.4776 194.413 51.286 194.413 51.0943C194.413 50.5478 194.76 50.0509 195.463 49.6037C196.162 49.1601 196.829 48.9365 197.465 48.9365C198.107 48.9365 198.529 49.1779 198.728 49.6605L202.022 57.5535L204.435 49.6605C204.623 49.1779 205.01 48.9365 205.599 48.9365C206.202 48.9365 206.877 49.1637 207.615 49.6179C208.353 50.0722 208.722 50.5939 208.722 51.1795C208.722 51.3711 208.68 51.5344 208.594 51.6763L204.463 61.9826C204.368 62.2594 204.194 62.7172 203.938 63.3596L203.413 64.694C203.317 64.985 203.136 65.3896 202.873 65.9007C202.607 66.4188 202.362 66.8021 202.135 67.0506C201.915 67.3061 201.613 67.6077 201.227 67.9591C200.836 68.3069 200.432 68.5589 200.006 68.7115C199.58 68.8712 199.062 69.0131 198.458 69.1374C197.862 69.258 197.202 69.3219 196.485 69.3219C195.804 69.3219 195.286 69.1941 194.938 68.9386C194.586 68.6902 194.413 68.1791 194.413 67.4055Z" fill="#4FA3D1"/>
<path d="M216.688 43.7268C216.688 43.1802 216.806 42.7047 217.043 42.3072C217.278 41.9097 217.618 41.7109 218.065 41.7109H230.643C231.097 41.7109 231.438 41.9097 231.665 42.3072C231.899 42.7047 232.02 43.1802 232.02 43.7268C232.02 44.3052 231.896 44.7915 231.651 45.1889C231.403 45.5864 231.069 45.7852 230.643 45.7852H226.626V61.6137C226.626 62.0608 226.402 62.4051 225.958 62.65C225.511 62.8878 224.979 63.0049 224.354 63.0049C223.73 63.0049 223.194 62.8878 222.75 62.65C222.303 62.4051 222.083 62.0608 222.083 61.6137V45.7852H218.065C217.64 45.7852 217.302 45.5864 217.058 45.1889C216.809 44.7915 216.688 44.3052 216.688 43.7268Z" fill="#4FA3D1"/>
<path d="M233.93 57.1133V55.0833C233.93 53.4295 234.576 51.9957 235.875 50.7819C237.181 49.5717 238.736 48.9648 240.545 48.9648C242.334 48.9648 243.885 49.5682 245.202 50.7677C246.526 51.9708 247.189 53.4082 247.189 55.0833V57.1133C247.189 58.753 246.522 60.1938 245.188 61.4431C243.86 62.6852 242.313 63.3028 240.545 63.3028C238.775 63.3028 237.227 62.6852 235.903 61.4431C234.587 60.1938 233.93 58.753 233.93 57.1133ZM238.444 57.1133C238.444 57.7025 238.647 58.2206 239.055 58.6749C239.47 59.1291 239.967 59.3563 240.545 59.3563C241.131 59.3563 241.631 59.1291 242.05 58.6749C242.465 58.2206 242.675 57.7025 242.675 57.1133V55.0833C242.675 54.5155 242.462 54.0115 242.036 53.5643C241.61 53.1207 241.113 52.8971 240.545 52.8971C239.985 52.8971 239.495 53.1207 239.069 53.5643C238.65 54.0115 238.444 54.5155 238.444 55.0833V57.1133Z" fill="#4FA3D1"/>
<path d="M256.159 59.5121C256.159 58.9656 256.358 58.419 256.755 57.8796C257.153 57.333 257.614 57.0562 258.147 57.0562C258.431 57.0562 258.75 57.1698 259.112 57.3969C259.47 57.6241 259.8 57.876 260.106 58.1493C260.407 58.4155 260.83 58.6604 261.369 58.8875C261.916 59.1075 262.491 59.214 263.087 59.214C263.843 59.214 264.499 59.0578 265.06 58.7455C265.628 58.4261 265.912 57.9435 265.912 57.2975C265.912 56.6552 265.592 56.0909 264.961 55.6082C264.336 55.1185 263.569 54.6713 262.661 54.2738C261.759 53.8763 260.851 53.4327 259.935 52.9394C259.027 52.4496 258.253 51.7469 257.621 50.8384C256.997 49.9227 256.684 48.8297 256.684 47.5591C256.684 45.5433 257.412 44.0385 258.871 43.0448C260.326 42.044 262.082 41.54 264.137 41.54C264.648 41.54 265.177 41.5684 265.727 41.6252C266.284 41.682 266.906 41.7956 267.587 41.9659C268.275 42.1292 268.84 42.3918 269.276 42.7609C269.72 43.13 269.943 43.5772 269.943 44.0953C269.943 44.6064 269.78 45.1387 269.461 45.6853C269.138 46.2247 268.694 46.4944 268.126 46.4944C267.899 46.4944 267.406 46.3099 266.65 45.9408C265.891 45.5717 265.053 45.3871 264.137 45.3871C263.172 45.3871 262.441 45.5575 261.951 45.8982C261.468 46.2318 261.227 46.6435 261.227 47.1332C261.227 47.5804 261.454 47.985 261.909 48.3541C262.363 48.7232 262.931 49.0426 263.612 49.3052C264.293 49.5608 265.035 49.8979 265.841 50.3131C266.643 50.7319 267.388 51.1897 268.07 51.6901C268.751 52.1835 269.319 52.8791 269.773 53.777C270.234 54.6677 270.469 55.6863 270.469 56.8291C270.469 58.8662 269.794 60.4561 268.453 61.5989C267.108 62.7346 265.351 63.3024 263.186 63.3024C261.291 63.3024 259.644 62.9156 258.246 62.1384C256.855 61.354 256.159 60.4774 256.159 59.5121Z" fill="#4FA3D1"/>
<path d="M272.557 59.4273C272.557 57.8089 273.142 56.6732 274.317 56.0202C275.488 55.3601 277.174 55.0265 279.371 55.0265H280.421V54.7284C280.421 54.1535 280.244 53.6495 279.896 53.2236C279.545 52.7907 278.991 52.5706 278.235 52.5706C277.305 52.5706 276.539 52.7339 275.935 53.0533C275.328 53.3762 274.959 53.5359 274.828 53.5359C274.363 53.5359 273.994 53.3088 273.721 52.8545C273.444 52.4003 273.309 51.8821 273.309 51.293C273.309 50.6506 273.848 50.1005 274.927 49.6462C276.006 49.192 277.128 48.9648 278.292 48.9648C280.524 48.9648 282.189 49.5114 283.289 50.5974C284.385 51.6869 284.936 53.0462 284.936 54.6716V61.6134C284.936 62.0038 284.726 62.3339 284.311 62.6072C283.892 62.8733 283.363 63.0046 282.721 63.0046C282.16 63.0046 281.685 62.8733 281.287 62.6072C280.897 62.3339 280.705 62.0038 280.705 61.6134V60.9604C279.371 62.522 277.898 63.3028 276.29 63.3028C275.218 63.3028 274.331 62.9727 273.621 62.309C272.912 61.6489 272.557 60.6872 272.557 59.4273ZM277.099 58.7742C277.099 59.5976 277.476 60.0093 278.235 60.0093C278.718 60.0093 279.2 59.7396 279.683 59.2001C280.173 58.6536 280.421 58.029 280.421 57.3263V57.2127H280.308C279.662 57.2127 279.133 57.2411 278.718 57.2979C278.299 57.3547 277.926 57.5073 277.596 57.7521C277.263 57.9899 277.099 58.3306 277.099 58.7742Z" fill="#4FA3D1"/>
<path d="M288.366 61.6418V47.0768C288.366 45.4017 288.866 44.0069 289.87 42.889C290.871 41.7746 292.085 41.2139 293.505 41.2139H295.591C296.138 41.2139 296.557 41.4055 296.841 41.7817C297.132 42.1614 297.281 42.6015 297.281 43.1019C297.281 43.6343 297.132 44.0814 296.841 44.4505C296.557 44.8196 296.138 45.0042 295.591 45.0042H294.484C293.412 45.0042 292.88 45.5294 292.88 46.5799V49.1352H296.173C296.521 49.1352 296.791 49.2985 296.983 49.6179C297.181 49.9408 297.281 50.3135 297.281 50.7394C297.281 51.1865 297.181 51.5627 296.983 51.875C296.791 52.1873 296.521 52.3435 296.173 52.3435H292.88V61.6418C292.88 62.0322 292.653 62.3587 292.199 62.6214C291.744 62.8769 291.205 63.0047 290.58 63.0047C289.945 63.0047 289.416 62.884 288.99 62.6356C288.572 62.38 288.366 62.05 288.366 61.6418Z" fill="#4FA3D1"/>
<path d="M299.025 57.1133V54.9981C299.025 53.3443 299.678 51.9247 300.984 50.7393C302.297 49.5575 303.88 48.9648 305.725 48.9648C307.457 48.9648 308.934 49.4865 310.155 50.5264C311.382 51.5592 312 52.8829 312 54.5013C312 55.1188 311.918 55.6227 311.759 56.0202C311.606 56.4106 311.375 56.6803 311.063 56.8294C310.751 56.982 310.46 57.0849 310.197 57.1417C309.942 57.1914 309.601 57.2127 309.175 57.2127H303.539V57.383C303.539 58.1035 303.809 58.682 304.348 59.115C304.895 59.5515 305.619 59.768 306.52 59.768C307.202 59.768 307.915 59.5905 308.664 59.2285C309.409 58.8701 309.906 58.6891 310.155 58.6891C310.644 58.6891 311.042 58.9233 311.347 59.3847C311.659 59.8389 311.815 60.2719 311.815 60.6765C311.815 61.2727 311.294 61.8619 310.254 62.4368C309.221 63.0117 307.94 63.3028 306.407 63.3028C304.228 63.3028 302.453 62.7349 301.083 61.5992C299.71 60.4565 299.025 58.9588 299.025 57.1133ZM303.539 54.6716H307.159C307.564 54.6716 307.77 54.4409 307.77 53.976C307.77 53.4295 307.56 53.0036 307.145 52.6984C306.726 52.3861 306.226 52.2299 305.64 52.2299C305.079 52.2299 304.59 52.3861 304.164 52.6984C303.745 53.0036 303.539 53.4295 303.539 53.976V54.6716Z" fill="#4FA3D1"/>
<mask id="mask0_155_2314" style="mask-type:luminance" maskUnits="userSpaceOnUse" x="14" y="0" width="111" height="88">
<path d="M14.5366 0H124.47V87.2199H14.5366V0Z" fill="white"/>
</mask>
<g mask="url(#mask0_155_2314)">
<mask id="mask1_155_2314" style="mask-type:luminance" maskUnits="userSpaceOnUse" x="-11" y="-27" width="153" height="158">
<path d="M-10.7285 17.2692L94.1654 -26.4863L141.367 86.6732L36.4766 130.429L-10.7285 17.2692Z" fill="white"/>
</mask>
<g mask="url(#mask1_155_2314)">
<mask id="mask2_155_2314" style="mask-type:luminance" maskUnits="userSpaceOnUse" x="-11" y="-27" width="153" height="158">
<path d="M-10.7285 17.2692L94.1654 -26.4863L141.367 86.6732L36.4766 130.429L-10.7285 17.2692Z" fill="white"/>
</mask>
<g mask="url(#mask2_155_2314)">
<path d="M50.658 0.365741C71.8739 -1.7743 78.6844 19.7894 89.0723 23.8068C99.4637 27.8278 120.509 36.6754 123.398 63.1367C126.61 92.5259 90.5096 77.173 68.8892 84.0083C28.2568 96.8592 8.69126 63.8217 16.7191 43.0246C24.7504 22.2311 23.2918 3.1375 50.658 0.365741Z" fill="#4FA3D1"/>
</g>
</g>
</g>
<mask id="mask3_155_2314" style="mask-type:luminance" maskUnits="userSpaceOnUse" x="0" y="10" width="70" height="80">
<path d="M0 10.6504H69.0491V89.0298H0V10.6504Z" fill="white"/>
</mask>
<g mask="url(#mask3_155_2314)">
<path d="M67.7428 26.0492C65.6063 25.4352 61.3617 23.9446 59.5766 23.2242C56.8723 22.1347 57.5359 20.0372 56.2512 19.1606C54.9629 18.2805 51.4068 16.7473 49.1319 17.3293C48.5392 14.8699 48.0743 10.6572 48.0743 10.6572C48.0743 10.6572 42.8928 15.9381 43.198 19.7C40.0997 20.3566 40.4937 29.8502 37.1328 38.0306C35.3263 42.4278 6.02235 60.3679 8.92187 79.4827C7.14383 79.5821 5.23092 79.6141 3.64808 77.1085C1.30219 73.3962 1.93391 66.6958 1.93391 66.6958C1.93391 66.6958 -1.52635 73.1514 0.936648 79.0746C2.85665 83.7025 7.76845 83.9971 9.05319 84.4939C6.97703 87.1273 8.59182 88.2026 11.7575 88.6107C14.9197 89.0224 31.9264 88.7989 35.2873 88.6107C38.6482 88.4262 35.5961 84.4158 32.7178 84.249C29.8361 84.0858 25.7973 83.8551 25.7973 83.8551C25.7973 83.8551 34.5953 84.6714 33.8145 77.5876C33.1402 71.462 26.6313 67.7427 26.532 67.5688C27.0927 67.5901 31.7383 70.2696 34.3078 76.0047C35.6741 78.5423 46.5199 68.6441 46.5199 68.6441C46.5199 68.6441 49.5897 88.8414 51.7653 88.8414C53.9408 88.8414 57.071 88.8414 59.1472 88.8414C59.9066 88.8414 60.4851 88.6179 59.7469 86.893C59.4808 86.272 55.5378 86.1123 55.1936 85.2853C53.8663 82.1055 54.5335 76.8459 52.6915 70.1418C52.2941 67.1394 54.8955 56.3753 56.3789 49.689C57.4791 44.7311 54.4306 34.6342 55.0623 34.1338C56.5422 32.9591 61.0707 34.4461 66.0038 32.2883C68.1119 31.3656 68.1403 28.7393 68.5058 28.466C69.4463 27.7704 68.2858 26.2053 67.7428 26.0492Z" fill="white"/>
</g>
<mask id="mask4_155_2314" style="mask-type:luminance" maskUnits="userSpaceOnUse" x="77" y="34" width="60" height="51">
<path d="M77.4424 34.7344H136.231V84.4947H77.4424V34.7344Z" fill="white"/>
</mask>
<g mask="url(#mask4_155_2314)">
<path d="M90.1937 57.2027C90.1937 57.2027 91.0419 65.1525 91.8902 66.1072C92.7384 67.0618 93.5866 79.3591 92.419 80.4202C91.2549 81.4814 89.8743 81.9037 89.7714 82.9649C89.6649 84.026 93.4801 83.8131 93.7995 83.7066C94.1154 83.6001 97.4017 71.6223 98.1435 70.9835C98.8852 70.3482 97.9341 75.331 98.7823 76.7115C99.6305 78.0885 102.172 79.572 102.172 79.572V80.4202C102.172 80.4202 99.2046 79.8914 98.8852 80.6332C98.5694 81.3749 98.1435 82.7519 99.0982 82.8584C100.053 82.9649 102.81 82.9649 102.81 82.9649C102.81 82.9649 102.704 83.7847 107.793 83.7989C112.882 83.8131 117.862 83.0713 117.862 83.0713L127.511 82.6454C127.511 82.6454 126.77 83.2523 127.511 83.7989C128.253 84.3419 135.248 84.026 135.674 82.7519C136.1 81.4814 134.613 79.0432 129.843 79.1497C125.073 79.2526 118.816 81.162 118.288 78.195C117.759 75.2245 119.665 69.0777 114.788 61.6567C109.912 54.2358 105.884 57.0963 103.868 54.3423C101.856 51.5847 100.688 48.2983 101.327 45.3278C101.962 42.3609 102.917 37.6975 101.536 36.8493C100.159 36.0011 98.037 39.4968 98.037 39.4968C98.037 39.4968 93.693 38.8616 93.4801 39.181C93.2672 39.4968 91.8902 36.7144 91.8902 36.7144C91.8902 36.7144 91.4643 39.3939 91.6772 39.8163C91.8902 40.2421 90.3002 40.9839 90.1937 41.4062C90.0873 41.8321 88.9161 43.2091 89.7679 44.4796C90.6161 45.7537 91.1484 46.8149 90.9355 47.6631C90.7225 48.5113 90.7225 48.5113 90.7225 48.5113C90.7225 48.5113 84.998 43.7379 82.9857 41.8321C80.9699 39.9227 81.6052 39.6033 80.8634 37.6975C80.1217 35.7882 78.9541 34.727 78.2124 35.3658C77.4706 36.0011 78.003 37.2716 78.2124 37.4846C78.4253 37.6975 78.4253 38.1198 78.3188 38.6486C78.2124 39.181 78.2124 40.0292 79.0606 40.2421C79.9088 40.4515 79.8059 43.3156 80.5476 44.1638C81.2893 45.012 86.4815 55.5063 90.1937 57.2027Z" fill="white"/>
</g>
<mask id="mask5_155_2314" style="mask-type:luminance" maskUnits="userSpaceOnUse" x="59" y="46" width="36" height="43">
<path d="M59.9634 46.3359H94.4879V88.7996H59.9634V46.3359Z" fill="white"/>
</mask>
<g mask="url(#mask5_155_2314)">
<path d="M90.3391 81.5238C90.3391 81.5238 91.3328 74.33 85.6332 67.4876C79.9299 60.6416 74.9614 64.0238 74.9614 64.0238C74.9614 64.0238 72.9704 61.2378 73.5666 59.7153C74.1664 58.1892 76.6187 55.9356 76.9488 53.2845C77.2788 50.6334 78.8049 47.1199 77.3463 47.0525C75.8876 46.9886 73.1691 55.4068 73.1691 55.4068C73.1691 55.4068 78.2761 41.2215 72.1754 49.0435C69.8366 52.0459 69.0594 56.5993 69.0594 56.5993C69.0594 56.5993 66.8732 57.1281 66.607 57.7243C66.3444 58.3241 63.4946 59.183 61.8372 61.6353C60.1798 64.0877 59.9136 64.8862 60.4424 65.8799C60.9748 66.8736 63.0297 69.1946 64.5522 68.6623L65.2833 69.656C65.2833 69.656 63.5585 76.0194 69.5917 80.9241C69.5917 80.9241 70.4541 83.5751 70.0567 84.6363C69.6592 85.6974 68.2644 86.4285 68.2644 87.0886C68.2644 87.7523 69.7905 88.416 71.3165 88.0824C72.8391 87.7523 72.1115 88.1711 72.1115 88.1711C72.1115 88.1711 76.8175 88.2172 77.4137 87.8872C78.0099 87.5536 78.0099 86.5598 78.0099 86.5598C78.0099 86.5598 79.0037 87.8197 79.3337 87.6849C79.6673 87.5536 84.9021 88.7957 85.4344 88.1746C85.9632 87.5536 87.2231 87.8872 87.2231 87.8872C87.2231 87.8872 88.8805 85.7649 89.4093 84.7037C89.9416 83.6426 90.222 86.2298 92.394 84.9025C94.566 83.5751 94.7789 78.7379 90.3391 81.5238Z" fill="white"/>
</g>
<mask id="mask6_155_2314" style="mask-type:luminance" maskUnits="userSpaceOnUse" x="88" y="8" width="15" height="14">
<path d="M88.1289 8.17676H102.666V21.8049H88.1289V8.17676Z" fill="white"/>
</mask>
<g mask="url(#mask6_155_2314)">
<mask id="mask7_155_2314" style="mask-type:luminance" maskUnits="userSpaceOnUse" x="87" y="6" width="17" height="17">
<path d="M89.7543 6.55859L103.46 9.39424L100.738 22.5539L87.0322 19.7147L89.7543 6.55859Z" fill="white"/>
</mask>
<g mask="url(#mask7_155_2314)">
<mask id="mask8_155_2314" style="mask-type:luminance" maskUnits="userSpaceOnUse" x="87" y="6" width="17" height="17">
<path d="M89.7543 6.55859L103.46 9.39424L100.738 22.5539L87.0322 19.7147L89.7543 6.55859Z" fill="white"/>
</mask>
<g mask="url(#mask8_155_2314)">
<path d="M95.8583 11.5522C96.6001 7.9748 89.7612 6.5623 88.7532 11.4386C87.8802 15.6655 92.0999 17.6316 93.8922 21.0635C96.8946 18.6253 101.551 18.494 102.424 14.2672C103.435 9.39085 96.6001 7.9748 95.8583 11.5522Z" fill="#FF5757"/>
</g>
</g>
</g>
</svg>
